# xmcd
#
# Track frame offsets:
#	150
#	15517
#	34638
#	57092
#	74638
#	94942
#	113934
#	131560
#	143942
#	162867
#	180726
#	199990
#
# Disc length: 2968 seconds
#
# Revision: 0
# Processed by: cddbd v1.5.2PL0 Copyright (c) Steve Scherf et al.
# Submitted via: EasyCDDAExtractor 16.0.1.1
#
DISCID=ab0b960c
DTITLE=Cadillac Blues Band - Poison Booze
DYEAR=1995
DGENRE=Blues
TTITLE0=Mama Missed The Voodoo Club
TTITLE1=Chicken Farm
TTITLE2=Leave It All Behind
TTITLE3=Memory Street
TTITLE4=Poison Booze In The Bottle
TTITLE5=Good Thing
TTITLE6=No More Greasy Towels
TTITLE7=Waiting For A Telephone Call
TTITLE8=Cadillac Ride
TTITLE9=Hey Jack
TTITLE10=Funky Cool
TTITLE11=Boogey Man
EXTD=
EXTT0=
EXTT1=
EXTT2=
EXTT3=
EXTT4=
EXTT5=
EXTT6=
EXTT7=
EXTT8=
EXTT9=
EXTT10=
EXTT11=
PLAYORDER=
